{"title":"Best of Neha Kakkar, All New Hindi Songs  2016 (Video Jukebox) F","uid":15464493,"size":347124092,"categoryP":"video","categoryS":"music_videos","magnet":"?xt=urn:btih:a38b101e9f4ff268bbbdcf2a1c8d64d1123023b6&amp;dn=Best+of+Neha+Kakkar%2C+All+New+Hindi+Songs++2016+%28Video+Jukebox%29+F&amp;tr=udp%3A%2F%2Ftracker.leechers-paradise.org%3A6969&amp;tr=udp%3A%2F%2Fzer0day.ch%3A1337&amp;tr=udp%3A%2F%2Fopen.demonii.com%3A1337&amp;tr=udp%3A%2F%2Ftracker.coppersurfer.tk%3A6969&amp;tr=udp%3A%2F%2Fexodus.desync.com%3A6969","seeders":11,"leechers":2,"uploader":"MdTaRa","files":1,"time":1470082923,"description":"====================================================================\r\nGeneral\r\nBest of Neha Kakkar, All New Hindi Songs  2016 (Video Jukebox) Full HD 720p.mkv\r\nFormat                      : Matroska\r\nFormat version              : Version 4 / Version 2\r\nFile size                   : 331 MiB\r\nDuration                    : 24 min\r\nOverall bit rate mode       : Variable\r\nOverall bit rate            : 1 900 kb/s\r\n========================================================================\r\nVideo\r\nID                          : 1\r\nFormat                      : AVC\r\nFormat/Info                 : Advanced Video Codec\r\nFormat profile              :   \r\nFormat settings, CABAC      : Yes\r\nFormat settings, ReFrames   : 3 frames\r\nCodec ID                    : V_MPEG4/ISO/AVC\r\nDuration                    : 24 min\r\nBit rate mode               : Variable\r\nBit rate                    : 1 802 kb/s\r\nMaximum bit rate            : 40.0 Mb/s\r\nWidth                       : 1 272 pixels\r\nHeight                      : 600 pixels\r\nDisplay aspect ratio        : 2.120\r\nFrame rate mode             : Constant\r\nFrame rate                  : 25.000 FPS\r\nColor space                 : YUV\r\nChroma subsampling          : 4:2:0\r\nBit depth                   : 8 bits\r\nScan type                   : Progressive\r\nBits/(Pixel*Frame)          : 0.094\r\nStream size                 : 314 MiB (95%)\r\nTitle                       : .....::::: TaRa :::::.....\r\nLanguage                    : Hindi\r\nDefault                     : Yes\r\nForced                      : No\r\n=======================================================================\r\nAudio\r\nID                          : 2\r\nFormat                      : AAC\r\nFormat/Info                 : Advanced Audio Codec\r\nFormat profile              : LC\r\nCodec ID                    : A_AAC\r\nDuration                    : 24 min\r\nBit rate                    : 96.0 kb/s\r\nChannel(s)                  : 2 channels\r\nChannel positions           : Front: L R\r\nSampling rate               : 44.1 kHz\r\nFrame rate                  : 43.066 FPS (1024 spf)\r\nCompression mode            : Lossy\r\nDelay relative to video     : 10 ms\r\nStream size                 : 16.7 MiB (5%)\r\nTitle                       : .....::::: TaRa :::::.....\r\nLanguage                    : Hindi\r\nDefault                     : Yes\r\nForced                      : No\r\n======================================================================= \nhttp://imgur.com/HXMsUYO \nhttp://imgur.com/W7eD4IG","torrent":{"xt":"urn:btih:a38b101e9f4ff268bbbdcf2a1c8d64d1123023b6","amp;dn":"Best+of+Neha+Kakkar%2C+All+New+Hindi+Songs++2016+%28Video+Jukebox%29+F","amp;tr":["udp%3A%2F%2Ftracker.leechers-paradise.org%3A6969","udp%3A%2F%2Fzer0day.ch%3A1337","udp%3A%2F%2Fopen.demonii.com%3A1337","udp%3A%2F%2Ftracker.coppersurfer.tk%3A6969","udp%3A%2F%2Fexodus.desync.com%3A6969"],"infoHash":"a38b101e9f4ff268bbbdcf2a1c8d64d1123023b6","infoHashBuffer":{"type":"Buffer","data":[163,139,16,30,159,79,242,104,187,189,207,42,28,141,100,209,18,48,35,182]},"announce":[],"urlList":[]}}